# xmcd
#
# Track frame offsets: 
#        150
#        22574
#        44211
#        69253
#        88727
#        117935
#        140815
#        165774
#        202167
#        228040
#        251703
#        277195
#        301583
#
# Disc length: 4361 seconds
#
# Revision: 0
# Processed by: cddbd v1.4PL0 Copyright (c) Steve Scherf et al.
# Submitted via: ExactAudioCopy v0.95a2
#
DISCID=ad11070d
DTITLE=Tony Joe White - Swampsnake Soul
DYEAR=1992
DGENRE=Blues
TTITLE0=Willie and Laura Mae Jones
TTITLE1=Do You Have a Garter Belt?
TTITLE2=Undercover Agent for the Blues
TTITLE3=Tunica Motel
TTITLE4=Good in Blues
TTITLE5=Bayou Rhythm
TTITLE6=Ain't Going Down This Time
TTITLE7=Closer to the Truth
TTITLE8=Polk Salad Annie
TTITLE9=Main Squeeze
TTITLE10=Rainy Night in Georgia
TTITLE11=Steamy Windows
TTITLE12=Even Trolls Love Rock'n'Roll
EXTD=
EXTT0=
EXTT1=
EXTT2=
EXTT3=
EXTT4=
EXTT5=
EXTT6=
EXTT7=
EXTT8=
EXTT9=
EXTT10=
EXTT11=
EXTT12=
PLAYORDER=
